<?xml version="1.0" encoding="utf-8"?>
<!-- Generator: Adobe Illustrator 17.1.0, SVG Export Plug-In . SVG Version: 6.00 Build 0)  -->
<!DOCTYPE svg PUBLIC "-//W3C//DTD SVG 1.1//EN" "http://www.w3.org/Graphics/SVG/1.1/DTD/svg11.dtd">
<svg version="1.1" id="dollar" xmlns="http://www.w3.org/2000/svg" xmlns:xlink="http://www.w3.org/1999/xlink" x="0px" y="0px"
	 viewBox="0 0 100 99.9956" enable-background="new 0 0 100 99.9956" xml:space="preserve">
<path id="dollar-label" fill="#324058" d="M50.001,0C22.3877,0,0,22.3882,0,49.9991c0,27.6137,22.3877,49.9965,50.001,49.9965
	c27.6094,0,49.999-22.3828,49.999-49.9965C100,22.3882,77.6104,0,50.001,0z"/>
<g id="dollar-dollar">
	<g>
		<path fill="#43C7D2" d="M50,78.1441c-15.5195,0-28.1465-12.625-28.1465-28.145c0-15.5205,12.627-28.148,28.1465-28.148
			c15.5215,0,28.1465,12.6275,28.1465,28.148C78.1465,65.5191,65.5215,78.1441,50,78.1441L50,78.1441z M50,23.7554
			c-14.4717,0-26.2437,11.773-26.2437,26.2437c0,14.4702,11.772,26.2417,26.2437,26.2417s26.2432-11.7715,26.2432-26.2417
			C76.2432,35.5284,64.4717,23.7554,50,23.7554L50,23.7554z"/>
	</g>
	<g>
		<g>
			<path fill="#EB8619" d="M49.3003,64.8814c-3.5894,0-6.1934-0.7891-7.7393-2.3408c-1.5766-1.584-1.5669-3.4873-1.5649-4.1123
				c0.0039-0.5235,0.4292-0.9815,0.9521-0.9815c0.0025,0,0.0025,0,0.0035,0c0.5239,0,0.9482,0.3906,0.9482,0.917
				c-0.0024,0.5938-0.0078,1.8115,1.0103,2.834c1.1586,1.1621,3.3681,1.7803,6.3901,1.7803c3.4565,0,5.9214-0.7266,7.3247-2.1573
				c1.5313-1.5595,1.4912-3.6298,1.4697-4.8681l-0.0058-0.3721c0-0.0605-0.5157-6.0073-8.7886-6.0073
				c-8.1978,0-9.3023-3.2949-9.3023-6.5191l-0.0019-0.2041c-0.002-1.6079-0.0068-3.8105,1.6597-5.4804
				c1.4936-1.4956,3.9941-2.2237,7.6445-2.2237c3.4419,0,6.0063,0.854,7.6226,2.5362c1.7441,1.8188,1.6787,3.9321,1.6757,4.0229
				c-0.0215,0.5249-0.5068,0.9224-0.9892,0.9102c-0.5244-0.0205-0.9307-0.459-0.9141-0.981
				c0.002-0.0688,0.0137-1.4482-1.1748-2.6626c-1.2461-1.2744-3.3398-1.9214-6.2202-1.9214c-3.0762,0-5.1948,0.5596-6.2964,1.6651
				c-1.1094,1.1108-1.1064,2.7153-1.104,4.1303v0.2085c0,1.9483,0,4.6158,7.4004,4.6158c8.8784,0,10.6909,6.2387,10.6909,7.9106
				l0.0049,0.3389c0.0273,1.331,0.0791,4.1064-2.0107,6.2363C56.209,63.9644,53.2881,64.8814,49.3003,64.8814L49.3003,64.8814z"/>
		</g>
		<g>
			<path fill="#EB8619" d="M50,35.6236c-0.5249,0-0.9512-0.4253-0.9512-0.9512v-3.7095c0-0.5263,0.4263-0.9526,0.9512-0.9526
				c0.5249,0,0.9512,0.4263,0.9512,0.9526v3.7095C50.9512,35.1983,50.5249,35.6236,50,35.6236L50,35.6236z"/>
		</g>
		<g>
			<path fill="#EB8619" d="M50.0757,69.9869c-0.5259,0-0.9517-0.4278-0.9517-0.9522v-3.71c0-0.5263,0.4258-0.9521,0.9517-0.9521
				c0.5249,0,0.9516,0.4258,0.9516,0.9521v3.71C51.0273,69.5591,50.6006,69.9869,50.0757,69.9869L50.0757,69.9869z"/>
		</g>
	</g>
</g>
</svg>
